<svg width="1520" height="1520" viewBox="0 0 1520 1520" fill="none" xmlns="http://www.w3.org/2000/svg">
<path d="M0 0H1520V1520H0V0Z" fill="#7A4A8B"/>
<path d="M570 570H380V760H190V380H570V570ZM1330 760H1140V570H950V380H1330V760Z" fill="#723F85"/>
<path d="M760 950H570V760H760V950ZM950 760H760V570H950V760Z" fill="#7A4A8B"/>
<path d="M950 1140H760V950H950V1140ZM570 760H380V570H570V760ZM1140 760H950V570H1140V760Z" fill="#703C83"/>
<path d="M570 950H760V1140H380V760H570V950ZM1140 1140H950V950H1140V1140ZM950 950H760V760H950V950ZM950 570H760V760H570V380H950V570Z" fill="#7A4D8C"/>
<path d="M190 1330H570V1520H0V950H190V1330ZM950 1520H760V1330H950V1520ZM1520 1520H1140V1330H1520V1520ZM1520 0V1140H1330V190H760V0H1520ZM570 190H190V760H0V0H570V190Z" fill="#7D538E"/>
<path d="M380 760V1140H1140V950H950V760H1330V1140H1520V1330H1140V1520H950V1330H760V1520H570V1330H190V950H0V760H380ZM760 190H1330V380H190V190H570V0H760V190Z" fill="#774B89"/>
</svg>
