<svg width="1520" height="1520" viewBox="0 0 1520 1520" fill="none" xmlns="http://www.w3.org/2000/svg">
<path d="M0 0H1520V1520H0V0Z" fill="#538B42"/>
<path d="M380 950H570V1140H380V950Z" fill="#4F803F"/>
<path d="M380 760H570V950H380V760Z" fill="#4F803F"/>
<path d="M570 570H760V760H570V570Z" fill="#4F803F"/>
<path d="M570 380H760V570H570V380Z" fill="#4F803F"/>
<path d="M570 950H760V1140H570V950Z" fill="#4F803F"/>
<path d="M570 570H380V760H190V380H570V570ZM1330 760H1140V570H950V380H1330V760Z" fill="#416934"/>
<path d="M1140 1140H950V950H1140V1140ZM760 950H570V760H760V950ZM950 760H760V570H950V760Z" fill="#4E7C3E"/>
<path d="M760 380H950V570H760V380Z" fill="#4F803F"/>
<path d="M950 1140H760V950H950V1140ZM570 760H380V570H570V760ZM1140 760H950V570H1140V760Z" fill="#3E6431"/>
<path d="M760 760H950V950H760V760Z" fill="#4F803F"/>
<path d="M190 1330H570V1520H0V950H190V1330ZM950 1520H760V1330H950V1520ZM1520 1520H1140V1330H1520V1520ZM1520 0V1140H1330V190H760V0H1520ZM570 190H190V760H0V0H570V190Z" fill="#538B42"/>
<path d="M380 760V1140H1140V950H950V760H1330V1140H1520V1330H1140V1520H950V1330H760V1520H570V1330H190V950H0V760H380ZM760 190H1330V380H190V190H570V0H760V190Z" fill="#4A7D3A"/>
</svg>
